<svg xmlns="http://www.w3.org/2000/svg" viewBox="0 0 728 451" width="728" height="451" fill="none">
    <defs>
        <linearGradient id="emeraldGrad" x1="0%" y1="0%" x2="100%" y2="100%">
            <stop offset="0%" stop-color="#00DC82"/>
            <stop offset="100%" stop-color="#10B981"/>
        </linearGradient>
        <filter id="softEmeraldGlow" x="-20%" y="-20%" width="140%" height="140%">
            <feDropShadow dx="0" dy="4" stdDeviation="10" flood-color="#10B981" flood-opacity="0.22"/>
        </filter>
    </defs>

    <g fill="#1E293B" opacity="0.8">
        <rect x="195" y="78" width="22" height="22" rx="2"/>
        <rect x="228" y="114" width="28" height="28" rx="2"/>
        <rect x="159" y="56" width="12" height="12" rx="2"/>
        <rect x="358" y="42" width="9" height="9" rx="2"/>
        <rect x="485" y="39" width="9" height="9" rx="2"/>
        <rect x="390" y="395" width="12" height="12" rx="2"/>
        <rect x="172" y="396" width="8" height="8" rx="2"/>
        <rect x="109" y="418" width="9" height="9" rx="2"/>
    </g>

    <g fill="url(#emeraldGrad)">
        <rect x="435" y="25" width="34" height="34" rx="3"/>
        <rect x="133" y="31" width="8" height="8" rx="3"/>
        <rect x="525" y="110" width="10" height="10" rx="3"/>
        <rect x="303" y="126" width="17" height="17" rx="3"/>
        <rect x="280" y="347" width="9" height="9" rx="3"/>
        <rect x="433" y="375" width="35" height="35" rx="3"/>
        <rect x="209" y="377" width="17" height="17" rx="3"/>
        <rect x="526" y="418" width="8" height="8" rx="3"/>
    </g>

    <!-- Glowing Emerald Plus -->
    <g fill="url(#emeraldGrad)" filter="url(#softEmeraldGlow)">
        <rect x="540" y="200" width="164" height="48" rx="14"/>
        <rect x="600" y="136" width="48" height="176" rx="14"/>
    </g>

    <!-- Code Wordmark -->
    <path d="M 386.0,143.5 L 386.5,144.0 L 387.0,144.5 L 387.5,144.0 L 388.0,143.5 L 389.0,143.5 L 390.0,143.5 L 391.0,143.5 L 392.0,143.5 L 393.0,143.5 L 394.0,143.5 L 395.0,143.5 L 396.0,143.5 L 397.0,143.5 L 398.0,143.5 L 399.0,143.5 L 400.0,143.5 L 401.0,143.5 L 402.0,143.5 L 403.0,143.5 L 404.0,143.5 L 405.0,143.5 L 406.0,143.5 L 407.0,143.5 L 408.0,143.5 L 409.0,143.5 L 410.0,143.5 L 411.0,143.5 L 412.0,143.5 L 413.0,143.5 L 414.0,143.5 L 415.0,143.5 L 416.0,143.5 L 417.0,143.5 L 418.0,143.5 L 418.5,144.0 L 419.0,144.5 L 419.5,145.0 L 419.5,146.0 L 419.5,147.0 L 419.5,148.0 L 419.5,149.0 L 419.5,150.0 L 419.5,151.0 L 419.5,152.0 L 419.5,153.0 L 419.5,154.0 L 419.5,155.0 L 419.5,156.0 L 419.5,157.0 L 419.5,158.0 L 419.5,159.0 L 419.5,160.0 L 419.5,161.0 L 419.5,162.0 L 419.5,163.0 L 419.5,164.0 L 419.5,165.0 L 419.5,166.0 L 419.5,167.0 L 419.5,168.0 L 419.5,169.0 L 419.5,170.0 L 419.5,171.0 L 419.5,172.0 L 419.5,173.0 L 419.5,174.0 L 419.5,175.0 L 419.5,176.0 L 419.5,177.0 L 419.5,178.0 L 419.5,179.0 L 419.5,180.0 L 419.5,181.0 L 419.5,182.0 L 419.5,183.0 L 419.5,184.0 L 419.5,185.0 L 419.5,186.0 L 419.5,187.0 L 419.5,188.0 L 419.5,189.0 L 419.5,190.0 L 419.5,191.0 L 419.5,192.0 L 419.5,193.0 L 419.5,194.0 L 419.5,195.0 L 419.5,196.0 L 419.5,197.0 L 419.5,198.0 L 419.5,199.0 L 419.5,200.0 L 419.5,201.0 L 419.5,202.0 L 419.5,203.0 L 419.5,204.0 L 419.5,205.0 L 419.5,206.0 L 419.5,207.0 L 419.5,208.0 L 419.5,209.0 L 419.5,210.0 L 419.5,211.0 L 419.5,212.0 L 419.5,213.0 L 419.5,214.0 L 419.5,215.0 L 419.5,216.0 L 419.5,217.0 L 419.5,218.0 L 419.5,219.0 L 419.5,220.0 L 419.5,221.0 L 419.5,222.0 L 419.5,223.0 L 419.5,224.0 L 419.5,225.0 L 419.5,226.0 L 419.5,227.0 L 419.5,228.0 L 419.5,229.0 L 419.5,230.0 L 419.5,231.0 L 419.5,232.0 L 419.5,233.0 L 419.5,234.0 L 419.5,235.0 L 419.5,236.0 L 419.5,237.0 L 419.5,238.0 L 419.5,239.0 L 419.5,240.0 L 419.5,241.0 L 419.5,242.0 L 419.5,243.0 L 419.5,244.0 L 419.5,245.0 L 419.5,246.0 L 419.5,247.0 L 419.5,248.0 L 419.5,249.0 L 419.5,250.0 L 419.5,251.0 L 419.5,252.0 L 419.5,253.0 L 419.5,254.0 L 419.5,255.0 L 419.5,256.0 L 419.5,257.0 L 419.5,258.0 L 419.5,259.0 L 419.5,260.0 L 419.5,261.0 L 419.5,262.0 L 419.5,263.0 L 419.5,264.0 L 419.5,265.0 L 419.5,266.0 L 419.5,267.0 L 419.5,268.0 L 419.5,269.0 L 419.5,270.0 L 419.5,271.0 L 419.5,272.0 L 419.5,273.0 L 419.5,274.0 L 419.5,275.0 L 419.5,276.0 L 419.5,277.0 L 419.5,278.0 L 419.5,279.0 L 419.5,280.0 L 419.5,281.0 L 419.5,282.0 L 419.5,283.0 L 419.5,284.0 L 419.5,285.0 L 419.5,286.0 L 419.5,287.0 L 419.5,288.0 L 419.5,289.0 L 419.5,290.0 L 419.5,291.0 L 419.5,292.0 L 419.5,293.0 L 419.5,294.0 L 419.5,295.0 L 419.5,296.0 L 419.5,297.0 L 419.5,298.0 L 419.5,299.0 L 419.5,300.0 L 419.5,301.0 L 419.5,302.0 L 419.5,303.0 L 419.5,304.0 L 419.5,305.0 L 419.5,306.0 L 419.0,306.5 L 418.5,307.0 L 418.0,307.5 L 417.0,307.5 L 416.0,307.5 L 415.0,307.5 L 414.0,307.5 L 413.0,307.5 L 412.0,307.5 L 411.0,307.5 L 410.0,307.5 L 409.0,307.5 L 408.0,307.5 L 407.0,307.5 L 406.0,307.5 L 405.0,307.5 L 404.0,307.5 L 403.0,307.5 L 402.0,307.5 L 401.0,307.5 L 400.0,307.5 L 399.0,307.5 L 398.0,307.5 L 397.0,307.5 L 396.0,307.5 L 395.0,307.5 L 394.0,307.5 L 393.0,307.5 L 392.0,307.5 L 391.0,307.5 L 390.0,307.5 L 389.0,307.5 L 388.0,307.5 L 387.0,307.5 L 386.5,307.0 L 386.5,306.0 L 386.5,305.0 L 386.5,304.0 L 386.5,303.0 L 386.5,302.0 L 386.5,301.0 L 386.5,300.0 L 386.5,299.0 L 386.5,298.0 L 386.5,297.0 L 386.5,296.0 L 386.5,295.0 L 386.0,294.5 L 385.0,294.5 L 384.5,295.0 L 384.0,295.5 L 383.5,296.0 L 383.0,296.5 L 382.5,297.0 L 382.0,297.5 L 381.5,298.0 L 381.0,298.5 L 380.5,299.0 L 380.0,299.5 L 379.5,300.0 L 379.0,300.5 L 378.0,300.5 L 377.5,301.0 L 377.0,301.5 L 376.5,302.0 L 376.0,302.5 L 375.0,302.5 L 374.5,303.0 L 374.0,303.5 L 373.0,303.5 L 372.5,304.0 L 372.0,304.5 L 371.0,304.5 L 370.5,305.0 L 370.0,305.5 L 369.0,305.5 L 368.5,306.0 L 368.0,306.5 L 367.0,306.5 L 366.0,306.5 L 365.5,307.0 L 365.0,307.5 L 364.0,307.5 L 363.0,307.5 L 362.0,307.5 L 361.5,308.0 L 361.0,308.5 L 360.0,308.5 L 359.0,308.5 L 358.0,308.5 L 357.0,308.5 L 356.0,308.5 L 355.0,308.5 L 354.0,308.5 L 353.5,309.0 L 353.0,309.5 L 352.0,309.5 L 351.0,309.5 L 350.0,309.5 L 349.0,309.5 L 348.0,309.5 L 347.0,309.5 L 346.0,309.5 L 345.5,309.0 L 345.0,308.5 L 344.0,308.5 L 343.0,308.5 L 342.0,308.5 L 341.0,308.5 L 340.0,308.5 L 339.0,308.5 L 338.0,308.5 L 337.5,308.0 L 337.0,307.5 L 336.0,307.5 L 335.0,307.5 L 334.0,307.5 L 333.5,307.0 L 333.0,306.5 L 332.0,306.5 L 331.0,306.5 L 330.0,306.5 L 329.5,306.0 L 329.0,305.5 L 328.0,305.5 L 327.5,305.0 L 327.0,304.5 L 326.0,304.5 L 325.5,304.0 L 325.0,303.5 L 324.0,303.5 L 323.0,303.5 L 322.5,303.0 L 322.0,302.5 L 321.5,302.0 L 321.0,301.5 L 320.0,301.5 L 319.5,301.0 L 319.0,300.5 L 318.0,300.5 L 317.5,300.0 L 317.0,299.5 L 316.5,299.0 L 316.0,298.5 L 315.0,298.5 L 314.5,298.0 L 314.0,297.5 L 313.5,297.0 L 313.0,296.5 L 312.5,296.0 L 312.0,295.5 L 311.5,295.0 L 311.0,294.5 L 310.5,294.0 L 310.0,293.5 L 309.5,293.0 L 309.0,292.5 L 308.5,292.0 L 308.0,291.5 L 307.5,291.0 L 307.0,290.5 L 306.5,290.0 L 306.0,289.5 L 305.5,289.0 L 305.0,288.5 L 304.5,288.0 L 304.0,287.5 L 303.5,287.0 L 303.5,286.0 L 303.0,285.5 L 302.5,285.0 L 302.0,284.5 L 301.5,284.0 L 301.5,283.0 L 301.0,282.5 L 300.5,282.0 L 300.5,281.0 L 300.0,280.5 L 299.5,280.0 L 299.5,279.0 L 299.0,278.5 L 298.5,278.0 L 298.5,277.0 L 298.0,276.5 L 297.5,276.0 L 297.5,275.0 L 297.0,274.5 L 296.5,274.0 L 296.5,273.0 L 296.0,272.5 L 295.5,272.0 L 295.5,271.0 L 295.5,270.0 L 295.0,269.5 L 294.5,269.0 L 294.5,268.0 L 294.5,267.0 L 294.5,266.0 L 294.0,265.5 L 293.5,265.0 L 293.5,264.0 L 293.5,263.0 L 293.5,262.0 L 293.5,261.0 L 293.0,260.5 L 292.5,260.0 L 292.5,259.0 L 292.5,258.0 L 292.5,257.0 L 292.5,256.0 L 292.5,255.0 L 292.5,254.0 L 292.5,253.0 L 292.0,252.5 L 291.5,252.0 L 291.5,251.0 L 291.5,250.0 L 291.5,249.0 L 291.5,248.0 L 291.5,247.0 L 291.5,246.0 L 291.5,245.0 L 292.0,244.5 L 292.5,244.0 L 292.5,243.0 L 292.5,242.0 L 292.5,241.0 L 292.5,240.0 L 292.5,239.0 L 292.5,238.0 L 292.5,237.0 L 292.5,236.0 L 293.0,235.5 L 293.5,235.0 L 293.5,234.0 L 293.5,233.0 L 293.5,232.0 L 293.5,231.0 L 294.0,230.5 L 294.5,230.0 L 294.5,229.0 L 294.5,228.0 L 294.5,227.0 L 295.0,226.5 L 295.5,226.0 L 295.5,225.0 L 295.5,224.0 L 296.0,223.5 L 296.5,223.0 L 296.5,222.0 L 297.0,221.5 L 297.5,221.0 L 297.5,220.0 L 297.5,219.0 L 298.0,218.5 L 298.5,218.0 L 298.5,217.0 L 299.0,216.5 L 299.5,216.0 L 300.0,215.5 L 300.5,215.0 L 300.5,214.0 L 301.0,213.5 L 301.5,213.0 L 301.5,212.0 L 302.0,211.5 L 302.5,211.0 L 303.0,210.5 L 303.5,210.0 L 303.5,209.0 L 304.0,208.5 L 304.5,208.0 L 305.0,207.5 L 305.5,207.0 L 306.0,206.5 L 306.5,206.0 L 307.0,205.5 L 307.5,205.0 L 308.0,204.5 L 308.5,204.0 L 309.0,203.5 L 309.5,203.0 L 310.0,202.5 L 310.5,202.0 L 311.0,201.5 L 311.5,201.0 L 312.0,200.5 L 312.5,200.0 L 313.0,199.5 L 313.5,199.0 L 314.0,198.5 L 315.0,198.5 L 315.5,198.0 L 316.0,197.5 L 316.5,197.0 L 317.0,196.5 L 317.5,196.0 L 318.0,195.5 L 319.0,195.5 L 319.5,195.0 L 320.0,194.5 L 321.0,194.5 L 321.5,194.0 L 322.0,193.5 L 322.5,193.0 L 323.0,192.5 L 324.0,192.5 L 324.5,192.0 L 325.0,191.5 L 326.0,191.5 L 327.0,191.5 L 327.5,191.0 L 328.0,190.5 L 329.0,190.5 L 330.0,190.5 L 330.5,190.0 L 331.0,189.5 L 332.0,189.5 L 333.0,189.5 L 333.5,189.0 L 334.0,188.5 L 335.0,188.5 L 336.0,188.5 L 336.5,188.0 L 337.0,187.5 L 338.0,187.5 L 339.0,187.5 L 340.0,187.5 L 341.0,187.5 L 342.0,187.5 L 343.0,187.5 L 343.5,187.0 L 344.0,186.5 L 345.0,186.5 L 346.0,186.5 L 347.0,186.5 L 348.0,186.5 L 349.0,186.5 L 350.0,186.5 L 351.0,186.5 L 352.0,186.5 L 353.0,186.5 L 354.0,186.5 L 355.0,186.5 L 356.0,186.5 L 357.0,186.5 L 357.5,187.0 L 358.0,187.5 L 359.0,187.5 L 360.0,187.5 L 361.0,187.5 L 362.0,187.5 L 363.0,187.5 L 363.5,188.0 L 364.0,188.5 L 365.0,188.5 L 366.0,188.5 L 366.5,189.0 L 367.0,189.5 L 368.0,189.5 L 369.0,189.5 L 369.5,190.0 L 370.0,190.5 L 371.0,190.5 L 372.0,190.5 L 372.5,191.0 L 373.0,191.5 L 374.0,191.5 L 374.5,192.0 L 375.0,192.5 L 375.5,193.0 L 376.0,193.5 L 377.0,193.5 L 377.5,194.0 L 378.0,194.5 L 379.0,194.5 L 379.5,195.0 L 380.0,195.5 L 380.5,196.0 L 381.0,196.5 L 381.5,197.0 L 382.0,197.5 L 383.0,197.5 L 383.5,198.0 L 384.0,198.5 L 384.5,198.0 L 384.5,197.0 L 384.5,196.0 L 384.5,195.0 L 384.5,194.0 L 384.5,193.0 L 384.5,192.0 L 384.5,191.0 L 385.0,190.5 L 385.5,190.0 L 385.5,189.0 L 385.5,188.0 L 385.5,187.0 L 385.5,186.0 L 385.5,185.0 L 385.5,184.0 L 385.5,183.0 L 385.5,182.0 L 385.0,181.5 L 384.5,181.0 L 384.5,180.0 L 384.5,179.0 L 384.5,178.0 L 384.5,177.0 L 384.5,176.0 L 384.5,175.0 L 384.5,174.0 L 384.5,173.0 L 384.5,172.0 L 384.5,171.0 L 384.5,170.0 L 384.5,169.0 L 384.5,168.0 L 384.5,167.0 L 385.0,166.5 L 385.5,166.0 L 385.5,165.0 L 385.5,164.0 L 385.0,163.5 L 384.5,163.0 L 384.5,162.0 L 384.5,161.0 L 384.5,160.0 L 384.5,159.0 L 384.5,158.0 L 384.5,157.0 L 384.5,156.0 L 384.5,155.0 L 384.5,154.0 L 384.5,153.0 L 384.5,152.0 L 384.5,151.0 L 384.5,150.0 L 384.5,149.0 L 384.5,148.0 L 384.5,147.0 L 384.5,146.0 L 384.5,145.0 L 385.0,144.5 L 385.5,144.0 L 386.0,143.5 Z M 76.0,147.5 L 77.0,147.5 L 78.0,147.5 L 79.0,147.5 L 80.0,147.5 L 81.0,147.5 L 82.0,147.5 L 83.0,147.5 L 84.0,147.5 L 85.0,147.5 L 86.0,147.5 L 87.0,147.5 L 88.0,147.5 L 89.0,147.5 L 90.0,147.5 L 91.0,147.5 L 91.5,148.0 L 92.0,148.5 L 93.0,148.5 L 94.0,148.5 L 95.0,148.5 L 96.0,148.5 L 97.0,148.5 L 98.0,148.5 L 99.0,148.5 L 99.5,149.0 L 100.0,149.5 L 101.0,149.5 L 102.0,149.5 L 103.0,149.5 L 104.0,149.5 L 104.5,150.0 L 105.0,150.5 L 106.0,150.5 L 107.0,150.5 L 108.0,150.5 L 108.5,151.0 L 109.0,151.5 L 110.0,151.5 L 111.0,151.5 L 111.5,152.0 L 112.0,152.5 L 113.0,152.5 L 114.0,152.5 L 114.5,153.0 L 115.0,153.5 L 116.0,153.5 L 117.0,153.5 L 117.5,154.0 L 118.0,154.5 L 119.0,154.5 L 119.5,155.0 L 120.0,155.5 L 121.0,155.5 L 121.5,156.0 L 122.0,156.5 L 123.0,156.5 L 123.5,157.0 L 124.0,157.5 L 125.0,157.5 L 125.5,158.0 L 126.0,158.5 L 126.5,159.0 L 127.0,159.5 L 128.0,159.5 L 128.5,160.0 L 129.0,160.5 L 129.5,161.0 L 130.0,161.5 L 131.0,161.5 L 131.5,162.0 L 132.0,162.5 L 132.5,163.0 L 133.0,163.5 L 133.5,164.0 L 134.0,164.5 L 135.0,164.5 L 135.5,165.0 L 136.0,165.5 L 136.5,166.0 L 137.0,166.5 L 137.5,167.0 L 138.0,167.5 L 138.5,168.0 L 139.0,168.5 L 139.5,169.0 L 140.0,169.5 L 140.5,170.0 L 141.0,170.5 L 141.5,171.0 L 142.0,171.5 L 142.5,172.0 L 143.0,172.5 L 143.5,173.0 L 144.0,173.5 L 144.5,174.0 L 145.0,174.5 L 145.5,175.0 L 145.5,176.0 L 145.0,176.5 L 144.5,177.0 L 144.0,177.5 L 143.5,178.0 L 143.0,178.5 L 142.5,179.0 L 142.0,179.5 L 141.5,180.0 L 141.0,180.5 L 140.5,181.0 L 140.0,181.5 L 139.5,182.0 L 139.0,182.5 L 138.5,183.0 L 138.0,183.5 L 137.5,184.0 L 137.0,184.5 L 136.5,185.0 L 136.0,185.5 L 135.5,186.0 L 135.0,186.5 L 134.5,187.0 L 134.0,187.5 L 133.5,188.0 L 133.0,188.5 L 132.5,189.0 L 132.0,189.5 L 131.5,190.0 L 131.0,190.5 L 130.5,191.0 L 130.0,191.5 L 129.5,192.0 L 129.0,192.5 L 128.5,193.0 L 128.0,193.5 L 127.5,194.0 L 127.0,194.5 L 126.5,195.0 L 126.0,195.5 L 125.5,196.0 L 125.0,196.5 L 124.5,197.0 L 124.0,197.5 L 123.5,198.0 L 123.0,198.5 L 122.5,198.0 L 122.0,197.5 L 121.5,197.0 L 121.0,196.5 L 120.5,196.0 L 120.0,195.5 L 119.5,195.0 L 119.0,194.5 L 118.5,194.0 L 118.0,193.5 L 117.5,193.0 L 117.0,192.5 L 116.5,192.0 L 116.0,191.5 L 115.5,191.0 L 115.0,190.5 L 114.5,190.0 L 114.0,189.5 L 113.0,189.5 L 112.5,189.0 L 112.0,188.5 L 111.5,188.0 L 111.0,187.5 L 110.5,187.0 L 110.0,186.5 L 109.0,186.5 L 108.5,186.0 L 108.0,185.5 L 107.0,185.5 L 106.5,185.0 L 106.0,184.5 L 105.0,184.5 L 104.5,184.0 L 104.0,183.5 L 103.0,183.5 L 102.5,183.0 L 102.0,182.5 L 101.0,182.5 L 100.0,182.5 L 99.5,182.0 L 99.0,181.5 L 98.0,181.5 L 97.0,181.5 L 96.5,181.0 L 96.0,180.5 L 95.0,180.5 L 94.0,180.5 L 93.0,180.5 L 92.0,180.5 L 91.0,180.5 L 90.5,180.0 L 90.0,179.5 L 89.0,179.5 L 88.0,179.5 L 87.0,179.5 L 86.0,179.5 L 85.0,179.5 L 84.0,179.5 L 83.0,179.5 L 82.0,179.5 L 81.0,179.5 L 80.0,179.5 L 79.0,179.5 L 78.0,179.5 L 77.0,179.5 L 76.5,180.0 L 76.0,180.5 L 75.0,180.5 L 74.0,180.5 L 73.0,180.5 L 72.0,180.5 L 71.5,181.0 L 71.0,181.5 L 70.0,181.5 L 69.0,181.5 L 68.0,181.5 L 67.5,182.0 L 67.0,182.5 L 66.0,182.5 L 65.5,183.0 L 65.0,183.5 L 64.0,183.5 L 63.5,184.0 L 63.0,184.5 L 62.0,184.5 L 61.5,185.0 L 61.0,185.5 L 60.0,185.5 L 59.5,186.0 L 59.0,186.5 L 58.0,186.5 L 57.5,187.0 L 57.0,187.5 L 56.5,188.0 L 56.0,188.5 L 55.0,188.5 L 54.5,189.0 L 54.0,189.5 L 53.5,190.0 L 53.0,190.5 L 52.5,191.0 L 52.0,191.5 L 51.5,192.0 L 51.0,192.5 L 50.5,193.0 L 50.0,193.5 L 49.5,194.0 L 49.0,194.5 L 48.5,195.0 L 48.0,195.5 L 47.5,196.0 L 47.5,197.0 L 47.0,197.5 L 46.5,198.0 L 46.0,198.5 L 45.5,199.0 L 45.0,199.5 L 44.5,200.0 L 44.5,201.0 L 44.0,201.5 L 43.5,202.0 L 43.5,203.0 L 43.0,203.5 L 42.5,204.0 L 42.5,205.0 L 42.0,205.5 L 41.5,206.0 L 41.5,207.0 L 41.0,207.5 L 40.5,208.0 L 40.5,209.0 L 40.0,209.5 L 39.5,210.0 L 39.5,211.0 L 39.5,212.0 L 39.0,212.5 L 38.5,213.0 L 38.5,214.0 L 38.5,215.0 L 38.5,216.0 L 38.0,216.5 L 37.5,217.0 L 37.5,218.0 L 37.5,219.0 L 37.5,220.0 L 37.5,221.0 L 37.5,222.0 L 37.5,223.0 L 37.0,223.5 L 36.5,224.0 L 36.5,225.0 L 36.5,226.0 L 36.5,227.0 L 36.5,228.0 L 36.5,229.0 L 36.5,230.0 L 36.5,231.0 L 36.5,232.0 L 36.5,233.0 L 37.0,233.5 L 37.5,234.0 L 37.5,235.0 L 37.5,236.0 L 37.5,237.0 L 37.5,238.0 L 37.5,239.0 L 37.5,240.0 L 38.0,240.5 L 38.5,241.0 L 38.5,242.0 L 38.5,243.0 L 38.5,244.0 L 39.0,244.5 L 39.5,245.0 L 39.5,246.0 L 39.5,247.0 L 40.0,247.5 L 40.5,248.0 L 40.5,249.0 L 41.0,249.5 L 41.5,250.0 L 41.5,251.0 L 42.0,251.5 L 42.5,252.0 L 42.5,253.0 L 43.0,253.5 L 43.5,254.0 L 43.5,255.0 L 44.0,255.5 L 44.5,256.0 L 44.5,257.0 L 45.0,257.5 L 45.5,258.0 L 46.0,258.5 L 46.5,259.0 L 46.5,260.0 L 47.0,260.5 L 47.5,261.0 L 48.0,261.5 L 48.5,262.0 L 49.0,262.5 L 49.5,263.0 L 50.0,263.5 L 50.5,264.0 L 51.0,264.5 L 51.5,265.0 L 52.0,265.5 L 52.5,266.0 L 53.0,266.5 L 53.5,267.0 L 54.0,267.5 L 54.5,268.0 L 55.0,268.5 L 55.5,269.0 L 56.0,269.5 L 57.0,269.5 L 57.5,270.0 L 58.0,270.5 L 58.5,271.0 L 59.0,271.5 L 60.0,271.5 L 60.5,272.0 L 61.0,272.5 L 62.0,272.5 L 62.5,273.0 L 63.0,273.5 L 64.0,273.5 L 64.5,274.0 L 65.0,274.5 L 66.0,274.5 L 66.5,275.0 L 67.0,275.5 L 68.0,275.5 L 69.0,275.5 L 69.5,276.0 L 70.0,276.5 L 71.0,276.5 L 72.0,276.5 L 73.0,276.5 L 73.5,277.0 L 74.0,277.5 L 75.0,277.5 L 76.0,277.5 L 77.0,277.5 L 78.0,277.5 L 79.0,277.5 L 80.0,277.5 L 81.0,277.5 L 82.0,277.5 L 82.5,278.0 L 83.0,278.5 L 84.0,278.5 L 85.0,278.5 L 86.0,278.5 L 86.5,278.0 L 87.0,277.5 L 88.0,277.5 L 89.0,277.5 L 90.0,277.5 L 91.0,277.5 L 92.0,277.5 L 93.0,277.5 L 94.0,277.5 L 94.5,277.0 L 95.0,276.5 L 96.0,276.5 L 97.0,276.5 L 98.0,276.5 L 98.5,276.0 L 99.0,275.5 L 100.0,275.5 L 101.0,275.5 L 101.5,275.0 L 102.0,274.5 L 103.0,274.5 L 103.5,274.0 L 104.0,273.5 L 105.0,273.5 L 105.5,273.0 L 106.0,272.5 L 107.0,272.5 L 107.5,272.0 L 108.0,271.5 L 109.0,271.5 L 109.5,271.0 L 110.0,270.5 L 110.5,270.0 L 111.0,269.5 L 112.0,269.5 L 112.5,269.0 L 113.0,268.5 L 113.5,268.0 L 114.0,267.5 L 114.5,267.0 L 115.0,266.5 L 115.5,266.0 L 116.0,265.5 L 116.5,265.0 L 117.0,264.5 L 117.5,264.0 L 118.0,263.5 L 119.0,263.5 L 119.5,263.0 L 120.0,262.5 L 120.5,262.0 L 120.5,261.0 L 121.0,260.5 L 121.5,260.0 L 122.0,259.5 L 122.5,259.0 L 123.0,258.5 L 123.5,259.0 L 124.0,259.5 L 124.5,260.0 L 125.0,260.5 L 125.5,261.0 L 126.0,261.5 L 126.5,262.0 L 127.0,262.5 L 127.5,263.0 L 128.0,263.5 L 128.5,264.0 L 129.0,264.5 L 129.5,265.0 L 130.0,265.5 L 130.5,266.0 L 131.0,266.5 L 131.5,267.0 L 132.0,267.5 L 132.5,268.0 L 133.0,268.5 L 133.5,269.0 L 134.0,269.5 L 134.5,270.0 L 135.0,270.5 L 136.0,270.5 L 136.5,271.0 L 137.0,271.5 L 137.5,272.0 L 138.0,272.5 L 138.5,273.0 L 139.0,273.5 L 139.5,274.0 L 140.0,274.5 L 140.5,275.0 L 141.0,275.5 L 141.5,276.0 L 142.0,276.5 L 142.5,277.0 L 143.0,277.5 L 143.5,278.0 L 144.0,278.5 L 144.5,279.0 L 145.0,279.5 L 145.5,280.0 L 146.0,280.5 L 146.5,281.0 L 146.0,281.5 L 145.5,282.0 L 145.0,282.5 L 144.5,283.0 L 144.0,283.5 L 143.5,284.0 L 143.0,284.5 L 142.5,285.0 L 142.0,285.5 L 141.5,286.0 L 141.0,286.5 L 140.5,287.0 L 140.0,287.5 L 139.5,288.0 L 139.0,288.5 L 138.5,289.0 L 138.0,289.5 L 137.5,290.0 L 137.0,290.5 L 136.5,291.0 L 136.0,291.5 L 135.5,292.0 L 135.0,292.5 L 134.5,293.0 L 134.0,293.5 L 133.0,293.5 L 132.5,294.0 L 132.0,294.5 L 131.5,295.0 L 131.0,295.5 L 130.5,296.0 L 130.0,296.5 L 129.0,296.5 L 128.5,297.0 L 128.0,297.5 L 127.5,298.0 L 127.0,298.5 L 126.0,298.5 L 125.5,299.0 L 125.0,299.5 L 124.0,299.5 L 123.5,300.0 L 123.0,300.5 L 122.0,300.5 L 121.5,301.0 L 121.0,301.5 L 120.0,301.5 L 119.5,302.0 L 119.0,302.5 L 118.0,302.5 L 117.5,303.0 L 117.0,303.5 L 116.0,303.5 L 115.5,304.0 L 115.0,304.5 L 114.0,304.5 L 113.0,304.5 L 112.5,305.0 L 112.0,305.5 L 111.0,305.5 L 110.0,305.5 L 109.5,306.0 L 109.0,306.5 L 108.0,306.5 L 107.0,306.5 L 106.0,306.5 L 105.5,307.0 L 105.0,307.5 L 104.0,307.5 L 103.0,307.5 L 102.0,307.5 L 101.0,307.5 L 100.5,308.0 L 100.0,308.5 L 99.0,308.5 L 98.0,308.5 L 97.0,308.5 L 96.0,308.5 L 95.0,308.5 L 94.0,308.5 L 93.5,309.0 L 93.0,309.5 L 92.0,309.5 L 91.0,309.5 L 90.0,309.5 L 89.0,309.5 L 88.0,309.5 L 87.0,309.5 L 86.0,309.5 L 85.0,309.5 L 84.0,309.5 L 83.0,309.5 L 82.0,309.5 L 81.0,309.5 L 80.0,309.5 L 79.0,309.5 L 78.0,309.5 L 77.0,309.5 L 76.0,309.5 L 75.0,309.5 L 74.0,309.5 L 73.0,309.5 L 72.5,309.0 L 72.0,308.5 L 71.0,308.5 L 70.0,308.5 L 69.0,308.5 L 68.0,308.5 L 67.0,308.5 L 66.0,308.5 L 65.5,308.0 L 65.0,307.5 L 64.0,307.5 L 63.0,307.5 L 62.0,307.5 L 61.0,307.5 L 60.5,307.0 L 60.0,306.5 L 59.0,306.5 L 58.0,306.5 L 57.0,306.5 L 56.5,306.0 L 56.0,305.5 L 55.0,305.5 L 54.0,305.5 L 53.5,305.0 L 53.0,304.5 L 52.0,304.5 L 51.5,304.0 L 51.0,303.5 L 50.0,303.5 L 49.0,303.5 L 48.5,303.0 L 48.0,302.5 L 47.0,302.5 L 46.5,302.0 L 46.0,301.5 L 45.0,301.5 L 44.5,301.0 L 44.0,300.5 L 43.0,300.5 L 42.5,300.0 L 42.0,299.5 L 41.0,299.5 L 40.5,299.0 L 40.0,298.5 L 39.0,298.5 L 38.5,298.0 L 38.0,297.5 L 37.5,297.0 L 37.0,296.5 L 36.0,296.5 L 35.5,296.0 L 35.0,295.5 L 34.5,295.0 L 34.0,294.5 L 33.0,294.5 L 32.5,294.0 L 32.0,293.5 L 31.5,293.0 L 31.0,292.5 L 30.5,292.0 L 30.0,291.5 L 29.0,291.5 L 28.5,291.0 L 28.0,290.5 L 27.5,290.0 L 27.0,289.5 L 26.5,289.0 L 26.0,288.5 L 25.5,288.0 L 25.0,287.5 L 24.5,287.0 L 24.0,286.5 L 23.5,286.0 L 23.0,285.5 L 22.5,285.0 L 22.0,284.5 L 21.5,284.0 L 21.0,283.5 L 20.5,283.0 L 20.0,282.5 L 19.5,282.0 L 19.0,281.5 L 18.5,281.0 L 18.5,280.0 L 18.0,279.5 L 17.5,279.0 L 17.0,278.5 L 16.5,278.0 L 16.0,277.5 L 15.5,277.0 L 15.5,276.0 L 15.0,275.5 L 14.5,275.0 L 14.0,274.5 L 13.5,274.0 L 13.5,273.0 L 13.0,272.5 L 12.5,272.0 L 12.0,271.5 L 11.5,271.0 L 11.5,270.0 L 11.0,269.5 L 10.5,269.0 L 10.5,268.0 L 10.0,267.5 L 9.5,267.0 L 9.5,266.0 L 9.0,265.5 L 8.5,265.0 L 8.5,264.0 L 8.0,263.5 L 7.5,263.0 L 7.5,262.0 L 7.0,261.5 L 6.5,261.0 L 6.5,260.0 L 6.5,259.0 L 6.0,258.5 L 5.5,258.0 L 5.5,257.0 L 5.5,256.0 L 5.0,255.5 L 4.5,255.0 L 4.5,254.0 L 4.5,253.0 L 4.0,252.5 L 3.5,252.0 L 3.5,251.0 L 3.5,250.0 L 3.0,249.5 L 2.5,249.0 L 2.5,248.0 L 2.5,247.0 L 2.5,246.0 L 2.5,245.0 L 2.0,244.5 L 1.5,244.0 L 1.5,243.0 L 1.5,242.0 L 1.5,241.0 L 1.5,240.0 L 1.5,239.0 L 1.5,238.0 L 1.0,237.5 L 0.5,237.0 L 0.5,236.0 L 0.5,235.0 L 0.5,234.0 L 0.5,233.0 L 0.5,232.0 L 0.5,231.0 L 0.5,230.0 L 0.5,229.0 L 0.5,228.0 L 0.5,227.0 L 0.5,226.0 L 0.5,225.0 L 0.5,224.0 L 0.5,223.0 L 0.5,222.0 L 0.5,221.0 L 0.5,220.0 L 0.5,219.0 L 1.0,218.5 L 1.5,218.0 L 1.5,217.0 L 1.5,216.0 L 1.5,215.0 L 1.5,214.0 L 1.5,213.0 L 1.5,212.0 L 2.0,211.5 L 2.5,211.0 L 2.5,210.0 L 2.5,209.0 L 2.5,208.0 L 3.0,207.5 L 3.5,207.0 L 3.5,206.0 L 3.5,205.0 L 3.5,204.0 L 4.0,203.5 L 4.5,203.0 L 4.5,202.0 L 4.5,201.0 L 5.0,200.5 L 5.5,200.0 L 5.5,199.0 L 5.5,198.0 L 6.0,197.5 L 6.5,197.0 L 6.5,196.0 L 7.0,195.5 L 7.5,195.0 L 7.5,194.0 L 8.0,193.5 L 8.5,193.0 L 8.5,192.0 L 9.0,191.5 L 9.5,191.0 L 9.5,190.0 L 10.0,189.5 L 10.5,189.0 L 10.5,188.0 L 11.0,187.5 L 11.5,187.0 L 11.5,186.0 L 12.0,185.5 L 12.5,185.0 L 13.0,184.5 L 13.5,184.0 L 13.5,183.0 L 14.0,182.5 L 14.5,182.0 L 15.0,181.5 L 15.5,181.0 L 15.5,180.0 L 16.0,179.5 L 16.5,179.0 L 17.0,178.5 L 17.5,178.0 L 18.0,177.5 L 18.5,177.0 L 18.5,176.0 L 19.0,175.5 L 19.5,175.0 L 20.0,174.5 L 20.5,174.0 L 21.0,173.5 L 21.5,173.0 L 22.0,172.5 L 22.5,172.0 L 23.0,171.5 L 23.5,171.0 L 24.0,170.5 L 24.5,170.0 L 25.0,169.5 L 25.5,169.0 L 26.0,168.5 L 26.5,168.0 L 27.0,167.5 L 28.0,167.5 L 28.5,167.0 L 29.0,166.5 L 29.5,166.0 L 30.0,165.5 L 30.5,165.0 L 31.0,164.5 L 31.5,164.0 L 32.0,163.5 L 33.0,163.5 L 33.5,163.0 L 34.0,162.5 L 34.5,162.0 L 35.0,161.5 L 36.0,161.5 L 36.5,161.0 L 37.0,160.5 L 37.5,160.0 L 38.0,159.5 L 39.0,159.5 L 39.5,159.0 L 40.0,158.5 L 41.0,158.5 L 41.5,158.0 L 42.0,157.5 L 42.5,157.0 L 43.0,156.5 L 44.0,156.5 L 44.5,156.0 L 45.0,155.5 L 46.0,155.5 L 47.0,155.5 L 47.5,155.0 L 48.0,154.5 L 49.0,154.5 L 49.5,154.0 L 50.0,153.5 L 51.0,153.5 L 51.5,153.0 L 52.0,152.5 L 53.0,152.5 L 54.0,152.5 L 54.5,152.0 L 55.0,151.5 L 56.0,151.5 L 57.0,151.5 L 58.0,151.5 L 58.5,151.0 L 59.0,150.5 L 60.0,150.5 L 61.0,150.5 L 62.0,150.5 L 62.5,150.0 L 63.0,149.5 L 64.0,149.5 L 65.0,149.5 L 66.0,149.5 L 67.0,149.5 L 67.5,149.0 L 68.0,148.5 L 69.0,148.5 L 70.0,148.5 L 71.0,148.5 L 72.0,148.5 L 73.0,148.5 L 74.0,148.5 L 75.0,148.5 L 75.5,148.0 L 76.0,147.5 Z M 209.0,186.5 L 210.0,186.5 L 211.0,186.5 L 212.0,186.5 L 213.0,186.5 L 214.0,186.5 L 215.0,186.5 L 216.0,186.5 L 217.0,186.5 L 218.0,186.5 L 219.0,186.5 L 220.0,186.5 L 221.0,186.5 L 221.5,187.0 L 222.0,187.5 L 223.0,187.5 L 224.0,187.5 L 225.0,187.5 L 226.0,187.5 L 227.0,187.5 L 228.0,187.5 L 229.0,187.5 L 229.5,188.0 L 230.0,188.5 L 231.0,188.5 L 232.0,188.5 L 233.0,188.5 L 234.0,188.5 L 234.5,189.0 L 235.0,189.5 L 236.0,189.5 L 237.0,189.5 L 237.5,190.0 L 238.0,190.5 L 239.0,190.5 L 240.0,190.5 L 240.5,191.0 L 241.0,191.5 L 242.0,191.5 L 243.0,191.5 L 243.5,192.0 L 244.0,192.5 L 245.0,192.5 L 245.5,193.0 L 246.0,193.5 L 247.0,193.5 L 247.5,194.0 L 248.0,194.5 L 249.0,194.5 L 249.5,195.0 L 250.0,195.5 L 251.0,195.5 L 251.5,196.0 L 252.0,196.5 L 252.5,197.0 L 253.0,197.5 L 254.0,197.5 L 254.5,198.0 L 255.0,198.5 L 255.5,199.0 L 256.0,199.5 L 257.0,199.5 L 257.5,200.0 L 258.0,200.5 L 258.5,201.0 L 259.0,201.5 L 259.5,202.0 L 260.0,202.5 L 260.5,203.0 L 261.0,203.5 L 261.5,204.0 L 262.0,204.5 L 262.5,205.0 L 263.0,205.5 L 263.5,206.0 L 264.0,206.5 L 264.5,207.0 L 265.0,207.5 L 265.5,208.0 L 266.0,208.5 L 266.5,209.0 L 267.0,209.5 L 267.5,210.0 L 268.0,210.5 L 268.5,211.0 L 268.5,212.0 L 269.0,212.5 L 269.5,213.0 L 270.0,213.5 L 270.5,214.0 L 270.5,215.0 L 271.0,215.5 L 271.5,216.0 L 271.5,217.0 L 272.0,217.5 L 272.5,218.0 L 273.0,218.5 L 273.5,219.0 L 273.5,220.0 L 273.5,221.0 L 274.0,221.5 L 274.5,222.0 L 274.5,223.0 L 275.0,223.5 L 275.5,224.0 L 275.5,225.0 L 276.0,225.5 L 276.5,226.0 L 276.5,227.0 L 276.5,228.0 L 277.0,228.5 L 277.5,229.0 L 277.5,230.0 L 277.5,231.0 L 277.5,232.0 L 278.0,232.5 L 278.5,233.0 L 278.5,234.0 L 278.5,235.0 L 278.5,236.0 L 278.5,237.0 L 279.0,237.5 L 279.5,238.0 L 279.5,239.0 L 279.5,240.0 L 279.5,241.0 L 279.5,242.0 L 279.5,243.0 L 279.5,244.0 L 279.5,245.0 L 279.5,246.0 L 279.5,247.0 L 279.5,248.0 L 279.5,249.0 L 279.5,250.0 L 279.5,251.0 L 279.5,252.0 L 279.5,253.0 L 279.5,254.0 L 279.5,255.0 L 279.5,256.0 L 279.5,257.0 L 279.5,258.0 L 279.0,258.5 L 278.5,259.0 L 278.5,260.0 L 278.5,261.0 L 278.5,262.0 L 278.5,263.0 L 278.0,263.5 L 277.5,264.0 L 277.5,265.0 L 277.5,266.0 L 277.0,266.5 L 276.5,267.0 L 276.5,268.0 L 276.5,269.0 L 276.0,269.5 L 275.5,270.0 L 275.5,271.0 L 275.5,272.0 L 275.0,272.5 L 274.5,273.0 L 274.5,274.0 L 274.0,274.5 L 273.5,275.0 L 273.5,276.0 L 273.0,276.5 L 272.5,277.0 L 272.5,278.0 L 272.0,278.5 L 271.5,279.0 L 271.5,280.0 L 271.0,280.5 L 270.5,281.0 L 270.0,281.5 L 269.5,282.0 L 269.5,283.0 L 269.0,283.5 L 268.5,284.0 L 268.0,284.5 L 267.5,285.0 L 267.5,286.0 L 267.0,286.5 L 266.5,287.0 L 266.0,287.5 L 265.5,288.0 L 265.0,288.5 L 264.5,289.0 L 264.0,289.5 L 263.5,290.0 L 263.0,290.5 L 262.5,291.0 L 262.0,291.5 L 261.5,292.0 L 261.0,292.5 L 260.5,293.0 L 260.0,293.5 L 259.5,294.0 L 259.0,294.5 L 258.5,295.0 L 258.0,295.5 L 257.0,295.5 L 256.5,296.0 L 256.0,296.5 L 255.5,297.0 L 255.0,297.5 L 254.5,298.0 L 254.0,298.5 L 253.0,298.5 L 252.5,299.0 L 252.0,299.5 L 251.0,299.5 L 250.5,300.0 L 250.0,300.5 L 249.5,301.0 L 249.0,301.5 L 248.0,301.5 L 247.5,302.0 L 247.0,302.5 L 246.0,302.5 L 245.5,303.0 L 245.0,303.5 L 244.0,303.5 L 243.5,304.0 L 243.0,304.5 L 242.0,304.5 L 241.0,304.5 L 240.5,305.0 L 240.0,305.5 L 239.0,305.5 L 238.0,305.5 L 237.5,306.0 L 237.0,306.5 L 236.0,306.5 L 235.0,306.5 L 234.5,307.0 L 234.0,307.5 L 233.0,307.5 L 232.0,307.5 L 231.0,307.5 L 230.0,307.5 L 229.5,308.0 L 229.0,308.5 L 228.0,308.5 L 227.0,308.5 L 226.0,308.5 L 225.0,308.5 L 224.0,308.5 L 223.0,308.5 L 222.0,308.5 L 221.5,309.0 L 221.0,309.5 L 220.0,309.5 L 219.0,309.5 L 218.0,309.5 L 217.0,309.5 L 216.0,309.5 L 215.0,309.5 L 214.0,309.5 L 213.0,309.5 L 212.0,309.5 L 211.0,309.5 L 210.5,309.0 L 210.0,308.5 L 209.0,308.5 L 208.0,308.5 L 207.0,308.5 L 206.0,308.5 L 205.0,308.5 L 204.0,308.5 L 203.0,308.5 L 202.0,308.5 L 201.5,308.0 L 201.0,307.5 L 200.0,307.5 L 199.0,307.5 L 198.0,307.5 L 197.0,307.5 L 196.5,307.0 L 196.0,306.5 L 195.0,306.5 L 194.0,306.5 L 193.5,306.0 L 193.0,305.5 L 192.0,305.5 L 191.0,305.5 L 190.5,305.0 L 190.0,304.5 L 189.0,304.5 L 188.5,304.0 L 188.0,303.5 L 187.0,303.5 L 186.5,303.0 L 186.0,302.5 L 185.0,302.5 L 184.0,302.5 L 183.5,302.0 L 183.0,301.5 L 182.5,301.0 L 182.0,300.5 L 181.0,300.5 L 180.5,300.0 L 180.0,299.5 L 179.0,299.5 L 178.5,299.0 L 178.0,298.5 L 177.5,298.0 L 177.0,297.5 L 176.0,297.5 L 175.5,297.0 L 175.0,296.5 L 174.5,296.0 L 174.0,295.5 L 173.5,295.0 L 173.0,294.5 L 172.0,294.5 L 171.5,294.0 L 171.0,293.5 L 170.5,293.0 L 170.0,292.5 L 169.5,292.0 L 169.0,291.5 L 168.5,291.0 L 168.0,290.5 L 167.5,290.0 L 167.0,289.5 L 166.5,289.0 L 166.0,288.5 L 165.5,288.0 L 165.0,287.5 L 164.5,287.0 L 164.5,286.0 L 164.0,285.5 L 163.5,285.0 L 163.0,284.5 L 162.5,284.0 L 162.0,283.5 L 161.5,283.0 L 161.5,282.0 L 161.0,281.5 L 160.5,281.0 L 160.0,280.5 L 159.5,280.0 L 159.5,279.0 L 159.0,278.5 L 158.5,278.0 L 158.5,277.0 L 158.0,276.5 L 157.5,276.0 L 157.5,275.0 L 157.0,274.5 L 156.5,274.0 L 156.5,273.0 L 156.0,272.5 L 155.5,272.0 L 155.5,271.0 L 155.5,270.0 L 155.0,269.5 L 154.5,269.0 L 154.5,268.0 L 154.5,267.0 L 154.0,266.5 L 153.5,266.0 L 153.5,265.0 L 153.5,264.0 L 153.5,263.0 L 153.0,262.5 L 152.5,262.0 L 152.5,261.0 L 152.5,260.0 L 152.5,259.0 L 152.5,258.0 L 152.0,257.5 L 151.5,257.0 L 151.5,256.0 L 151.5,255.0 L 151.5,254.0 L 151.5,253.0 L 151.5,252.0 L 151.5,251.0 L 151.5,250.0 L 151.5,249.0 L 151.5,248.0 L 151.5,247.0 L 151.5,246.0 L 151.5,245.0 L 151.5,244.0 L 151.5,243.0 L 151.5,242.0 L 151.5,241.0 L 151.5,240.0 L 151.5,239.0 L 152.0,238.5 L 152.5,238.0 L 152.5,237.0 L 152.5,236.0 L 152.5,235.0 L 152.5,234.0 L 152.5,233.0 L 153.0,232.5 L 153.5,232.0 L 153.5,231.0 L 153.5,230.0 L 154.0,229.5 L 154.5,229.0 L 154.5,228.0 L 154.5,227.0 L 155.0,226.5 L 155.5,226.0 L 155.5,225.0 L 155.5,224.0 L 156.0,223.5 L 156.5,223.0 L 156.5,222.0 L 157.0,221.5 L 157.5,221.0 L 157.5,220.0 L 158.0,219.5 L 158.5,219.0 L 158.5,218.0 L 159.0,217.5 L 159.5,217.0 L 159.5,216.0 L 160.0,215.5 L 160.5,215.0 L 161.0,214.5 L 161.5,214.0 L 161.5,213.0 L 162.0,212.5 L 162.5,212.0 L 163.0,211.5 L 163.5,211.0 L 163.5,210.0 L 164.0,209.5 L 164.5,209.0 L 165.0,208.5 L 165.5,208.0 L 166.0,207.5 L 166.5,207.0 L 167.0,206.5 L 167.5,206.0 L 168.0,205.5 L 168.5,205.0 L 169.0,204.5 L 169.5,204.0 L 170.0,203.5 L 170.5,203.0 L 171.0,202.5 L 171.5,202.0 L 172.0,201.5 L 172.5,201.0 L 173.0,200.5 L 173.5,200.0 L 174.0,199.5 L 175.0,199.5 L 175.5,199.0 L 176.0,198.5 L 176.5,198.0 L 177.0,197.5 L 178.0,197.5 L 178.5,197.0 L 179.0,196.5 L 179.5,196.0 L 180.0,195.5 L 181.0,195.5 L 181.5,195.0 L 182.0,194.5 L 183.0,194.5 L 183.5,194.0 L 184.0,193.5 L 185.0,193.5 L 185.5,193.0 L 186.0,192.5 L 187.0,192.5 L 187.5,192.0 L 188.0,191.5 L 189.0,191.5 L 190.0,191.5 L 190.5,191.0 L 191.0,190.5 L 192.0,190.5 L 193.0,190.5 L 193.5,190.0 L 194.0,189.5 L 195.0,189.5 L 196.0,189.5 L 196.5,189.0 L 197.0,188.5 L 198.0,188.5 L 199.0,188.5 L 200.0,188.5 L 201.0,188.5 L 201.5,188.0 L 202.0,187.5 L 203.0,187.5 L 204.0,187.5 L 205.0,187.5 L 206.0,187.5 L 207.0,187.5 L 208.0,187.5 L 208.5,187.0 L 209.0,186.5 Z M 491.0,186.5 L 492.0,186.5 L 493.0,186.5 L 494.0,186.5 L 495.0,186.5 L 496.0,186.5 L 497.0,186.5 L 498.0,186.5 L 499.0,186.5 L 500.0,186.5 L 501.0,186.5 L 502.0,186.5 L 502.5,187.0 L 503.0,187.5 L 504.0,187.5 L 505.0,187.5 L 506.0,187.5 L 507.0,187.5 L 508.0,187.5 L 509.0,187.5 L 509.5,188.0 L 510.0,188.5 L 511.0,188.5 L 512.0,188.5 L 513.0,188.5 L 514.0,188.5 L 514.5,189.0 L 515.0,189.5 L 516.0,189.5 L 517.0,189.5 L 517.5,190.0 L 518.0,190.5 L 519.0,190.5 L 520.0,190.5 L 520.5,191.0 L 521.0,191.5 L 522.0,191.5 L 523.0,191.5 L 523.5,192.0 L 524.0,192.5 L 525.0,192.5 L 525.5,193.0 L 526.0,193.5 L 527.0,193.5 L 527.5,194.0 L 528.0,194.5 L 529.0,194.5 L 529.5,195.0 L 530.0,195.5 L 530.5,196.0 L 531.0,196.5 L 532.0,196.5 L 532.5,197.0 L 533.0,197.5 L 533.5,198.0 L 534.0,198.5 L 535.0,198.5 L 535.5,199.0 L 536.0,199.5 L 536.5,200.0 L 537.0,200.5 L 537.5,201.0 L 538.0,201.5 L 538.5,202.0 L 539.0,202.5 L 539.5,203.0 L 540.0,203.5 L 540.5,204.0 L 541.0,204.5 L 541.5,205.0 L 542.0,205.5 L 542.5,206.0 L 543.0,206.5 L 543.5,207.0 L 544.0,207.5 L 544.5,208.0 L 545.0,208.5 L 545.5,209.0 L 545.5,210.0 L 546.0,210.5 L 546.5,211.0 L 547.0,211.5 L 547.5,212.0 L 548.0,212.5 L 548.5,213.0 L 548.5,214.0 L 549.0,214.5 L 549.5,215.0 L 549.5,216.0 L 549.5,217.0 L 549.5,218.0 L 549.5,219.0 L 549.5,220.0 L 549.5,221.0 L 549.5,222.0 L 549.5,223.0 L 549.5,224.0 L 549.5,225.0 L 549.5,226.0 L 549.5,227.0 L 549.5,228.0 L 549.5,229.0 L 549.5,230.0 L 549.5,231.0 L 549.5,232.0 L 549.5,233.0 L 549.5,234.0 L 549.5,235.0 L 549.5,236.0 L 549.5,237.0 L 549.5,238.0 L 549.5,239.0 L 549.5,240.0 L 549.5,241.0 L 549.5,242.0 L 549.5,243.0 L 549.5,244.0 L 549.5,245.0 L 549.5,246.0 L 549.5,247.0 L 549.5,248.0 L 549.5,249.0 L 549.5,250.0 L 549.5,251.0 L 549.5,252.0 L 549.5,253.0 L 549.5,254.0 L 549.5,255.0 L 549.5,256.0 L 549.5,257.0 L 549.0,257.5 L 548.0,257.5 L 547.0,257.5 L 546.0,257.5 L 545.0,257.5 L 544.0,257.5 L 543.0,257.5 L 542.0,257.5 L 541.0,257.5 L 540.0,257.5 L 539.0,257.5 L 538.0,257.5 L 537.0,257.5 L 536.0,257.5 L 535.0,257.5 L 534.0,257.5 L 533.0,257.5 L 532.0,257.5 L 531.0,257.5 L 530.0,257.5 L 529.0,257.5 L 528.0,257.5 L 527.0,257.5 L 526.0,257.5 L 525.0,257.5 L 524.0,257.5 L 523.0,257.5 L 522.0,257.5 L 521.0,257.5 L 520.0,257.5 L 519.0,257.5 L 518.0,257.5 L 517.0,257.5 L 516.0,257.5 L 515.0,257.5 L 514.0,257.5 L 513.0,257.5 L 512.0,257.5 L 511.0,257.5 L 510.0,257.5 L 509.0,257.5 L 508.0,257.5 L 507.0,257.5 L 506.0,257.5 L 505.0,257.5 L 504.0,257.5 L 503.0,257.5 L 502.0,257.5 L 501.0,257.5 L 500.0,257.5 L 499.0,257.5 L 498.0,257.5 L 497.0,257.5 L 496.0,257.5 L 495.0,257.5 L 494.0,257.5 L 493.0,257.5 L 492.0,257.5 L 491.0,257.5 L 490.0,257.5 L 489.0,257.5 L 488.0,257.5 L 487.0,257.5 L 486.0,257.5 L 485.0,257.5 L 484.0,257.5 L 483.0,257.5 L 482.0,257.5 L 481.0,257.5 L 480.0,257.5 L 479.0,257.5 L 478.0,257.5 L 477.0,257.5 L 476.0,257.5 L 475.0,257.5 L 474.0,257.5 L 473.0,257.5 L 472.0,257.5 L 471.0,257.5 L 470.0,257.5 L 469.0,257.5 L 468.5,258.0 L 468.5,259.0 L 468.5,260.0 L 469.0,260.5 L 469.5,261.0 L 469.5,262.0 L 469.5,263.0 L 470.0,263.5 L 470.5,264.0 L 470.5,265.0 L 471.0,265.5 L 471.5,266.0 L 471.5,267.0 L 472.0,267.5 L 472.5,268.0 L 473.0,268.5 L 473.5,269.0 L 474.0,269.5 L 474.5,270.0 L 474.5,271.0 L 475.0,271.5 L 475.5,272.0 L 476.0,272.5 L 476.5,273.0 L 477.0,273.5 L 477.5,274.0 L 478.0,274.5 L 479.0,274.5 L 479.5,275.0 L 480.0,275.5 L 480.5,276.0 L 481.0,276.5 L 482.0,276.5 L 482.5,277.0 L 483.0,277.5 L 483.5,278.0 L 484.0,278.5 L 485.0,278.5 L 485.5,279.0 L 486.0,279.5 L 487.0,279.5 L 488.0,279.5 L 488.5,280.0 L 489.0,280.5 L 490.0,280.5 L 491.0,280.5 L 492.0,280.5 L 492.5,281.0 L 493.0,281.5 L 494.0,281.5 L 495.0,281.5 L 496.0,281.5 L 497.0,281.5 L 498.0,281.5 L 499.0,281.5 L 500.0,281.5 L 501.0,281.5 L 502.0,281.5 L 503.0,281.5 L 504.0,281.5 L 505.0,281.5 L 506.0,281.5 L 507.0,281.5 L 508.0,281.5 L 509.0,281.5 L 510.0,281.5 L 510.5,281.0 L 511.0,280.5 L 512.0,280.5 L 513.0,280.5 L 514.0,280.5 L 514.5,280.0 L 515.0,279.5 L 516.0,279.5 L 517.0,279.5 L 517.5,279.0 L 518.0,278.5 L 519.0,278.5 L 519.5,278.0 L 520.0,277.5 L 521.0,277.5 L 521.5,277.0 L 522.0,276.5 L 523.0,276.5 L 523.5,276.0 L 524.0,275.5 L 524.5,275.0 L 525.0,274.5 L 526.0,274.5 L 526.5,274.0 L 527.0,273.5 L 527.5,273.0 L 528.0,272.5 L 528.5,272.0 L 529.0,271.5 L 529.5,271.0 L 530.0,270.5 L 530.5,271.0 L 531.0,271.5 L 531.5,272.0 L 532.0,272.5 L 532.5,273.0 L 533.0,273.5 L 533.5,274.0 L 534.0,274.5 L 534.5,275.0 L 535.0,275.5 L 535.5,276.0 L 536.0,276.5 L 536.5,277.0 L 537.0,277.5 L 537.5,278.0 L 538.0,278.5 L 538.5,279.0 L 539.0,279.5 L 539.5,280.0 L 540.0,280.5 L 540.5,281.0 L 541.0,281.5 L 541.5,282.0 L 542.0,282.5 L 542.5,283.0 L 543.0,283.5 L 543.5,284.0 L 544.0,284.5 L 544.5,285.0 L 545.0,285.5 L 545.5,286.0 L 546.0,286.5 L 546.5,287.0 L 547.0,287.5 L 547.5,288.0 L 548.0,288.5 L 548.5,289.0 L 548.5,290.0 L 548.0,290.5 L 547.5,291.0 L 547.0,291.5 L 546.5,292.0 L 546.0,292.5 L 545.5,293.0 L 545.0,293.5 L 544.5,294.0 L 544.0,294.5 L 543.5,295.0 L 543.0,295.5 L 542.5,296.0 L 542.0,296.5 L 541.5,297.0 L 541.0,297.5 L 540.0,297.5 L 539.5,298.0 L 539.0,298.5 L 538.5,299.0 L 538.0,299.5 L 537.0,299.5 L 536.5,300.0 L 536.0,300.5 L 535.5,301.0 L 535.0,301.5 L 534.0,301.5 L 533.5,302.0 L 533.0,302.5 L 532.0,302.5 L 531.5,303.0 L 531.0,303.5 L 530.0,303.5 L 529.0,303.5 L 528.5,304.0 L 528.0,304.5 L 527.0,304.5 L 526.5,305.0 L 526.0,305.5 L 525.0,305.5 L 524.0,305.5 L 523.5,306.0 L 523.0,306.5 L 522.0,306.5 L 521.0,306.5 L 520.0,306.5 L 519.5,307.0 L 519.0,307.5 L 518.0,307.5 L 517.0,307.5 L 516.0,307.5 L 515.5,308.0 L 515.0,308.5 L 514.0,308.5 L 513.0,308.5 L 512.0,308.5 L 511.0,308.5 L 510.0,308.5 L 509.0,308.5 L 508.0,308.5 L 507.0,308.5 L 506.0,308.5 L 505.0,308.5 L 504.5,309.0 L 504.0,309.5 L 503.0,309.5 L 502.0,309.5 L 501.0,309.5 L 500.0,309.5 L 499.0,309.5 L 498.0,309.5 L 497.0,309.5 L 496.5,309.0 L 496.0,308.5 L 495.0,308.5 L 494.0,308.5 L 493.0,308.5 L 492.0,308.5 L 491.0,308.5 L 490.0,308.5 L 489.0,308.5 L 488.0,308.5 L 487.0,308.5 L 486.0,308.5 L 485.5,308.0 L 485.0,307.5 L 484.0,307.5 L 483.0,307.5 L 482.0,307.5 L 481.0,307.5 L 480.5,307.0 L 480.0,306.5 L 479.0,306.5 L 478.0,306.5 L 477.5,306.0 L 477.0,305.5 L 476.0,305.5 L 475.0,305.5 L 474.5,305.0 L 474.0,304.5 L 473.0,304.5 L 472.0,304.5 L 471.5,304.0 L 471.0,303.5 L 470.0,303.5 L 469.5,303.0 L 469.0,302.5 L 468.0,302.5 L 467.5,302.0 L 467.0,301.5 L 466.0,301.5 L 465.5,301.0 L 465.0,300.5 L 464.0,300.5 L 463.5,300.0 L 463.0,299.5 L 462.0,299.5 L 461.5,299.0 L 461.0,298.5 L 460.5,298.0 L 460.0,297.5 L 459.0,297.5 L 458.5,297.0 L 458.0,296.5 L 457.5,296.0 L 457.0,295.5 L 456.0,295.5 L 455.5,295.0 L 455.0,294.5 L 454.5,294.0 L 454.0,293.5 L 453.5,293.0 L 453.0,292.5 L 452.5,292.0 L 452.0,291.5 L 451.5,291.0 L 451.0,290.5 L 450.5,290.0 L 450.0,289.5 L 449.5,289.0 L 449.0,288.5 L 448.5,288.0 L 448.0,287.5 L 447.5,287.0 L 447.0,286.5 L 446.5,286.0 L 446.5,285.0 L 446.0,284.5 L 445.5,284.0 L 445.0,283.5 L 444.5,283.0 L 444.0,282.5 L 443.5,282.0 L 443.5,281.0 L 443.0,280.5 L 442.5,280.0 L 442.5,279.0 L 442.0,278.5 L 441.5,278.0 L 441.5,277.0 L 441.0,276.5 L 440.5,276.0 L 440.5,275.0 L 440.0,274.5 L 439.5,274.0 L 439.5,273.0 L 439.0,272.5 L 438.5,272.0 L 438.5,271.0 L 438.0,270.5 L 437.5,270.0 L 437.5,269.0 L 437.5,268.0 L 437.0,267.5 L 436.5,267.0 L 436.5,266.0 L 436.5,265.0 L 436.5,264.0 L 436.0,263.5 L 435.5,263.0 L 435.5,262.0 L 435.5,261.0 L 435.5,260.0 L 435.0,259.5 L 434.5,259.0 L 434.5,258.0 L 434.5,257.0 L 434.5,256.0 L 434.5,255.0 L 434.5,254.0 L 434.5,253.0 L 434.5,252.0 L 434.5,251.0 L 434.5,250.0 L 434.5,249.0 L 434.5,248.0 L 434.5,247.0 L 434.5,246.0 L 434.5,245.0 L 434.5,244.0 L 434.5,243.0 L 434.5,242.0 L 434.5,241.0 L 434.5,240.0 L 434.5,239.0 L 434.5,238.0 L 434.5,237.0 L 435.0,236.5 L 435.5,236.0 L 435.5,235.0 L 435.5,234.0 L 435.5,233.0 L 435.5,232.0 L 436.0,231.5 L 436.5,231.0 L 436.5,230.0 L 436.5,229.0 L 437.0,228.5 L 437.5,228.0 L 437.5,227.0 L 437.5,226.0 L 438.0,225.5 L 438.5,225.0 L 438.5,224.0 L 438.5,223.0 L 439.0,222.5 L 439.5,222.0 L 439.5,221.0 L 440.0,220.5 L 440.5,220.0 L 440.5,219.0 L 441.0,218.5 L 441.5,218.0 L 441.5,217.0 L 442.0,216.5 L 442.5,216.0 L 442.5,215.0 L 443.0,214.5 L 443.5,214.0 L 444.0,213.5 L 444.5,213.0 L 444.5,212.0 L 445.0,211.5 L 445.5,211.0 L 446.0,210.5 L 446.5,210.0 L 447.0,209.5 L 447.5,209.0 L 447.5,208.0 L 448.0,207.5 L 448.5,207.0 L 449.0,206.5 L 449.5,206.0 L 450.0,205.5 L 450.5,205.0 L 451.0,204.5 L 451.5,204.0 L 452.0,203.5 L 452.5,203.0 L 453.0,202.5 L 453.5,202.0 L 454.0,201.5 L 455.0,201.5 L 455.5,201.0 L 456.0,200.5 L 456.5,200.0 L 457.0,199.5 L 457.5,199.0 L 458.0,198.5 L 459.0,198.5 L 459.5,198.0 L 460.0,197.5 L 460.5,197.0 L 461.0,196.5 L 462.0,196.5 L 462.5,196.0 L 463.0,195.5 L 463.5,195.0 L 464.0,194.5 L 465.0,194.5 L 465.5,194.0 L 466.0,193.5 L 467.0,193.5 L 467.5,193.0 L 468.0,192.5 L 469.0,192.5 L 469.5,192.0 L 470.0,191.5 L 471.0,191.5 L 472.0,191.5 L 472.5,191.0 L 473.0,190.5 L 474.0,190.5 L 475.0,190.5 L 475.5,190.0 L 476.0,189.5 L 477.0,189.5 L 478.0,189.5 L 478.5,189.0 L 479.0,188.5 L 480.0,188.5 L 481.0,188.5 L 482.0,188.5 L 483.0,188.5 L 483.5,188.0 L 484.0,187.5 L 485.0,187.5 L 486.0,187.5 L 487.0,187.5 L 488.0,187.5 L 489.0,187.5 L 490.0,187.5 L 490.5,187.0 L 491.0,186.5 Z M 492.0,212.5 L 491.5,213.0 L 491.0,213.5 L 490.0,213.5 L 489.0,213.5 L 488.0,213.5 L 487.0,213.5 L 486.5,214.0 L 486.0,214.5 L 485.0,214.5 L 484.5,215.0 L 484.0,215.5 L 483.0,215.5 L 482.5,216.0 L 482.0,216.5 L 481.0,216.5 L 480.5,217.0 L 480.0,217.5 L 479.0,217.5 L 478.5,218.0 L 478.0,218.5 L 477.5,219.0 L 477.0,219.5 L 476.5,220.0 L 476.0,220.5 L 475.5,221.0 L 475.0,221.5 L 474.5,222.0 L 474.0,222.5 L 473.5,223.0 L 473.5,224.0 L 473.0,224.5 L 472.5,225.0 L 472.0,225.5 L 471.5,226.0 L 471.5,227.0 L 471.0,227.5 L 470.5,228.0 L 470.5,229.0 L 470.0,229.5 L 469.5,230.0 L 469.5,231.0 L 469.5,232.0 L 469.0,232.5 L 468.5,233.0 L 468.5,234.0 L 468.5,235.0 L 468.5,236.0 L 468.5,237.0 L 469.0,237.5 L 470.0,237.5 L 471.0,237.5 L 472.0,237.5 L 473.0,237.5 L 474.0,237.5 L 475.0,237.5 L 476.0,237.5 L 477.0,237.5 L 478.0,237.5 L 479.0,237.5 L 480.0,237.5 L 481.0,237.5 L 482.0,237.5 L 483.0,237.5 L 484.0,237.5 L 485.0,237.5 L 486.0,237.5 L 487.0,237.5 L 488.0,237.5 L 489.0,237.5 L 490.0,237.5 L 491.0,237.5 L 492.0,237.5 L 493.0,237.5 L 494.0,237.5 L 495.0,237.5 L 496.0,237.5 L 497.0,237.5 L 498.0,237.5 L 499.0,237.5 L 500.0,237.5 L 501.0,237.5 L 502.0,237.5 L 503.0,237.5 L 504.0,237.5 L 505.0,237.5 L 506.0,237.5 L 507.0,237.5 L 508.0,237.5 L 509.0,237.5 L 510.0,237.5 L 511.0,237.5 L 512.0,237.5 L 513.0,237.5 L 514.0,237.5 L 515.0,237.5 L 516.0,237.5 L 517.0,237.5 L 518.0,237.5 L 519.0,237.5 L 520.0,237.5 L 521.0,237.5 L 522.0,237.5 L 523.0,237.5 L 524.0,237.5 L 524.5,237.0 L 524.5,236.0 L 524.5,235.0 L 524.5,234.0 L 524.0,233.5 L 523.5,233.0 L 523.5,232.0 L 523.5,231.0 L 523.5,230.0 L 523.0,229.5 L 522.5,229.0 L 522.5,228.0 L 522.0,227.5 L 521.5,227.0 L 521.5,226.0 L 521.0,225.5 L 520.5,225.0 L 520.0,224.5 L 519.5,224.0 L 519.5,223.0 L 519.0,222.5 L 518.5,222.0 L 518.0,221.5 L 517.5,221.0 L 517.0,220.5 L 516.5,220.0 L 516.0,219.5 L 515.5,219.0 L 515.0,218.5 L 514.5,218.0 L 514.0,217.5 L 513.0,217.5 L 512.5,217.0 L 512.0,216.5 L 511.0,216.5 L 510.5,216.0 L 510.0,215.5 L 509.5,215.0 L 509.0,214.5 L 508.0,214.5 L 507.0,214.5 L 506.5,214.0 L 506.0,213.5 L 505.0,213.5 L 504.0,213.5 L 503.0,213.5 L 502.5,213.0 L 502.0,212.5 L 501.0,212.5 L 500.0,212.5 L 499.0,212.5 L 498.0,212.5 L 497.0,212.5 L 496.0,212.5 L 495.0,212.5 L 494.0,212.5 L 493.0,212.5 L 492.0,212.5 Z M 209.0,215.5 L 208.5,216.0 L 208.0,216.5 L 207.0,216.5 L 206.0,216.5 L 205.5,217.0 L 205.0,217.5 L 204.0,217.5 L 203.0,217.5 L 202.5,218.0 L 202.0,218.5 L 201.0,218.5 L 200.5,219.0 L 200.0,219.5 L 199.5,220.0 L 199.0,220.5 L 198.0,220.5 L 197.5,221.0 L 197.0,221.5 L 196.5,222.0 L 196.0,222.5 L 195.5,223.0 L 195.0,223.5 L 194.5,224.0 L 194.0,224.5 L 193.5,225.0 L 193.0,225.5 L 192.5,226.0 L 192.5,227.0 L 192.0,227.5 L 191.5,228.0 L 191.0,228.5 L 190.5,229.0 L 190.5,230.0 L 190.0,230.5 L 189.5,231.0 L 189.5,232.0 L 189.0,232.5 L 188.5,233.0 L 188.5,234.0 L 188.0,234.5 L 187.5,235.0 L 187.5,236.0 L 187.5,237.0 L 187.5,238.0 L 187.0,238.5 L 186.5,239.0 L 186.5,240.0 L 186.5,241.0 L 186.5,242.0 L 186.5,243.0 L 186.0,243.5 L 185.5,244.0 L 185.5,245.0 L 185.5,246.0 L 185.5,247.0 L 185.5,248.0 L 185.5,249.0 L 185.5,250.0 L 185.5,251.0 L 186.0,251.5 L 186.5,252.0 L 186.5,253.0 L 186.5,254.0 L 186.5,255.0 L 186.5,256.0 L 186.5,257.0 L 187.0,257.5 L 187.5,258.0 L 187.5,259.0 L 187.5,260.0 L 188.0,260.5 L 188.5,261.0 L 188.5,262.0 L 188.5,263.0 L 189.0,263.5 L 189.5,264.0 L 189.5,265.0 L 190.0,265.5 L 190.5,266.0 L 190.5,267.0 L 191.0,267.5 L 191.5,268.0 L 192.0,268.5 L 192.5,269.0 L 192.5,270.0 L 193.0,270.5 L 193.5,271.0 L 194.0,271.5 L 194.5,272.0 L 195.0,272.5 L 195.5,273.0 L 196.0,273.5 L 196.5,274.0 L 197.0,274.5 L 198.0,274.5 L 198.5,275.0 L 199.0,275.5 L 199.5,276.0 L 200.0,276.5 L 201.0,276.5 L 201.5,277.0 L 202.0,277.5 L 203.0,277.5 L 203.5,278.0 L 204.0,278.5 L 205.0,278.5 L 205.5,279.0 L 206.0,279.5 L 207.0,279.5 L 208.0,279.5 L 209.0,279.5 L 209.5,280.0 L 210.0,280.5 L 211.0,280.5 L 212.0,280.5 L 213.0,280.5 L 214.0,280.5 L 215.0,280.5 L 216.0,280.5 L 217.0,280.5 L 218.0,280.5 L 219.0,280.5 L 220.0,280.5 L 221.0,280.5 L 221.5,280.0 L 222.0,279.5 L 223.0,279.5 L 224.0,279.5 L 225.0,279.5 L 225.5,279.0 L 226.0,278.5 L 227.0,278.5 L 228.0,278.5 L 228.5,278.0 L 229.0,277.5 L 230.0,277.5 L 230.5,277.0 L 231.0,276.5 L 231.5,276.0 L 232.0,275.5 L 233.0,275.5 L 233.5,275.0 L 234.0,274.5 L 234.5,274.0 L 235.0,273.5 L 235.5,273.0 L 236.0,272.5 L 236.5,272.0 L 237.0,271.5 L 237.5,271.0 L 238.0,270.5 L 238.5,270.0 L 239.0,269.5 L 239.5,269.0 L 239.5,268.0 L 240.0,267.5 L 240.5,267.0 L 240.5,266.0 L 241.0,265.5 L 241.5,265.0 L 241.5,264.0 L 242.0,263.5 L 242.5,263.0 L 242.5,262.0 L 243.0,261.5 L 243.5,261.0 L 243.5,260.0 L 243.5,259.0 L 244.0,258.5 L 244.5,258.0 L 244.5,257.0 L 244.5,256.0 L 244.5,255.0 L 244.5,254.0 L 245.0,253.5 L 245.5,253.0 L 245.5,252.0 L 245.5,251.0 L 245.5,250.0 L 245.5,249.0 L 245.5,248.0 L 245.5,247.0 L 245.5,246.0 L 245.5,245.0 L 245.5,244.0 L 245.5,243.0 L 245.5,242.0 L 245.0,241.5 L 244.5,241.0 L 244.5,240.0 L 244.5,239.0 L 244.5,238.0 L 244.0,237.5 L 243.5,237.0 L 243.5,236.0 L 243.5,235.0 L 243.0,234.5 L 242.5,234.0 L 242.5,233.0 L 242.5,232.0 L 242.0,231.5 L 241.5,231.0 L 241.5,230.0 L 241.0,229.5 L 240.5,229.0 L 240.0,228.5 L 239.5,228.0 L 239.5,227.0 L 239.0,226.5 L 238.5,226.0 L 238.0,225.5 L 237.5,225.0 L 237.0,224.5 L 236.5,224.0 L 236.0,223.5 L 235.5,223.0 L 235.0,222.5 L 234.5,222.0 L 234.0,221.5 L 233.5,221.0 L 233.0,220.5 L 232.0,220.5 L 231.5,220.0 L 231.0,219.5 L 230.5,219.0 L 230.0,218.5 L 229.0,218.5 L 228.5,218.0 L 228.0,217.5 L 227.0,217.5 L 226.0,217.5 L 225.5,217.0 L 225.0,216.5 L 224.0,216.5 L 223.0,216.5 L 222.5,216.0 L 222.0,215.5 L 221.0,215.5 L 220.0,215.5 L 219.0,215.5 L 218.0,215.5 L 217.0,215.5 L 216.0,215.5 L 215.0,215.5 L 214.0,215.5 L 213.0,215.5 L 212.0,215.5 L 211.0,215.5 L 210.0,215.5 L 209.0,215.5 Z M 350.0,215.5 L 349.5,216.0 L 349.0,216.5 L 348.0,216.5 L 347.0,216.5 L 346.0,216.5 L 345.5,217.0 L 345.0,217.5 L 344.0,217.5 L 343.5,218.0 L 343.0,218.5 L 342.0,218.5 L 341.5,219.0 L 341.0,219.5 L 340.0,219.5 L 339.5,220.0 L 339.0,220.5 L 338.5,221.0 L 338.0,221.5 L 337.5,222.0 L 337.0,222.5 L 336.0,222.5 L 335.5,223.0 L 335.0,223.5 L 334.5,224.0 L 334.5,225.0 L 334.0,225.5 L 333.5,226.0 L 333.0,226.5 L 332.5,227.0 L 332.0,227.5 L 331.5,228.0 L 331.5,229.0 L 331.0,229.5 L 330.5,230.0 L 330.5,231.0 L 330.0,231.5 L 329.5,232.0 L 329.5,233.0 L 329.0,233.5 L 328.5,234.0 L 328.5,235.0 L 328.5,236.0 L 328.0,236.5 L 327.5,237.0 L 327.5,238.0 L 327.5,239.0 L 327.5,240.0 L 327.5,241.0 L 327.0,241.5 L 326.5,242.0 L 326.5,243.0 L 326.5,244.0 L 326.5,245.0 L 326.5,246.0 L 326.5,247.0 L 326.5,248.0 L 326.5,249.0 L 326.5,250.0 L 326.5,251.0 L 326.5,252.0 L 326.5,253.0 L 326.5,254.0 L 327.0,254.5 L 327.5,255.0 L 327.5,256.0 L 327.5,257.0 L 327.5,258.0 L 328.0,258.5 L 328.5,259.0 L 328.5,260.0 L 328.5,261.0 L 329.0,261.5 L 329.5,262.0 L 329.5,263.0 L 329.5,264.0 L 330.0,264.5 L 330.5,265.0 L 330.5,266.0 L 331.0,266.5 L 331.5,267.0 L 332.0,267.5 L 332.5,268.0 L 332.5,269.0 L 333.0,269.5 L 333.5,270.0 L 334.0,270.5 L 334.5,271.0 L 335.0,271.5 L 335.5,272.0 L 336.0,272.5 L 336.5,273.0 L 337.0,273.5 L 337.5,274.0 L 338.0,274.5 L 338.5,275.0 L 339.0,275.5 L 340.0,275.5 L 340.5,276.0 L 341.0,276.5 L 341.5,277.0 L 342.0,277.5 L 343.0,277.5 L 343.5,278.0 L 344.0,278.5 L 345.0,278.5 L 346.0,278.5 L 346.5,279.0 L 347.0,279.5 L 348.0,279.5 L 349.0,279.5 L 350.0,279.5 L 351.0,279.5 L 351.5,280.0 L 352.0,280.5 L 353.0,280.5 L 354.0,280.5 L 355.0,280.5 L 356.0,280.5 L 357.0,280.5 L 358.0,280.5 L 359.0,280.5 L 360.0,280.5 L 360.5,280.0 L 361.0,279.5 L 362.0,279.5 L 363.0,279.5 L 364.0,279.5 L 364.5,279.0 L 365.0,278.5 L 366.0,278.5 L 367.0,278.5 L 367.5,278.0 L 368.0,277.5 L 369.0,277.5 L 369.5,277.0 L 370.0,276.5 L 371.0,276.5 L 371.5,276.0 L 372.0,275.5 L 372.5,275.0 L 373.0,274.5 L 373.5,274.0 L 374.0,273.5 L 375.0,273.5 L 375.5,273.0 L 376.0,272.5 L 376.5,272.0 L 377.0,271.5 L 377.5,271.0 L 377.5,270.0 L 378.0,269.5 L 378.5,269.0 L 379.0,268.5 L 379.5,268.0 L 380.0,267.5 L 380.5,267.0 L 380.5,266.0 L 381.0,265.5 L 381.5,265.0 L 381.5,264.0 L 382.0,263.5 L 382.5,263.0 L 382.5,262.0 L 382.5,261.0 L 383.0,260.5 L 383.5,260.0 L 383.5,259.0 L 383.5,258.0 L 384.0,257.5 L 384.5,257.0 L 384.5,256.0 L 384.5,255.0 L 384.5,254.0 L 384.5,253.0 L 385.0,252.5 L 385.5,252.0 L 385.5,251.0 L 385.5,250.0 L 385.5,249.0 L 385.5,248.0 L 385.5,247.0 L 385.5,246.0 L 385.5,245.0 L 385.5,244.0 L 385.0,243.5 L 384.5,243.0 L 384.5,242.0 L 384.5,241.0 L 384.5,240.0 L 384.5,239.0 L 384.5,238.0 L 384.0,237.5 L 383.5,237.0 L 383.5,236.0 L 383.5,235.0 L 383.0,234.5 L 382.5,234.0 L 382.5,233.0 L 382.5,232.0 L 382.0,231.5 L 381.5,231.0 L 381.5,230.0 L 381.0,229.5 L 380.5,229.0 L 380.0,228.5 L 379.5,228.0 L 379.5,227.0 L 379.0,226.5 L 378.5,226.0 L 378.0,225.5 L 377.5,225.0 L 377.0,224.5 L 376.5,224.0 L 376.0,223.5 L 375.5,223.0 L 375.0,222.5 L 374.5,222.0 L 374.0,221.5 L 373.5,221.0 L 373.0,220.5 L 372.0,220.5 L 371.5,220.0 L 371.0,219.5 L 370.5,219.0 L 370.0,218.5 L 369.0,218.5 L 368.5,218.0 L 368.0,217.5 L 367.0,217.5 L 366.0,217.5 L 365.5,217.0 L 365.0,216.5 L 364.0,216.5 L 363.0,216.5 L 362.5,216.0 L 362.0,215.5 L 361.0,215.5 L 360.0,215.5 L 359.0,215.5 L 358.0,215.5 L 357.0,215.5 L 356.0,215.5 L 355.0,215.5 L 354.0,215.5 L 353.0,215.5 L 352.0,215.5 L 351.0,215.5 L 350.0,215.5 Z" fill="#0F172A" fill-rule="evenodd"/>
</svg>